<?xml version="1.0" encoding="UTF-8"?>
<!DOCTYPE svg PUBLIC "-//W3C//DTD SVG 1.1//EN" "http://www.w3.org/Graphics/SVG/1.1/DTD/svg11.dtd">
<!-- Creator: CorelDRAW 2021 (64-Bit) -->
<svg xmlns="http://www.w3.org/2000/svg" xml:space="preserve" width="297mm" height="210mm" version="1.1" style="shape-rendering:geometricPrecision; text-rendering:geometricPrecision; image-rendering:optimizeQuality; fill-rule:evenodd; clip-rule:evenodd"
viewBox="0 0 29700 21000"
 xmlns:xlink="http://www.w3.org/1999/xlink"
 xmlns:xodm="http://www.corel.com/coreldraw/odm/2003">
 <defs>
  <style type="text/css">
   <![CDATA[
    .str0 {stroke:black;stroke-width:7.62;stroke-miterlimit:22.9256}
    .str1 {stroke:#373435;stroke-width:7.62;stroke-linecap:round;stroke-linejoin:round;stroke-miterlimit:22.9256}
    .fil2 {fill:#FEFEFE}
    .fil1 {fill:black}
    .fil0 {fill:black;fill-rule:nonzero}
   ]]>
  </style>
 </defs>
 <g id="Capa_x0020_1">
  <metadata id="CorelCorpID_0Corel-Layer"/>
  <path class="fil0 str0" d="M4681.21 9175.38l48.38 -180.38c2.05,-9.43 3.28,-18.45 3.28,-26.24 0,-62.72 -70.1,-94.29 -209.9,-95.11l-962.18 1.23 -112.73 420.61 960.53 0c160.29,0 251.31,-40.17 272.62,-120.11zm-446.45 360.36l-850.66 0 -80.35 300.09c-21.73,79.94 -72.56,120.11 -152.51,120.11 -62.31,0 -93.47,-25.42 -93.47,-75.84 0,-12.71 1.64,-27.47 5.74,-44.27l290.66 -1081.07c21.73,-79.94 72.16,-120.12 151.27,-120.12l1140.93 -1.23c228.35,0.82 342.31,80.36 342.31,237.78 0,36.9 -5.73,77.48 -18.04,121.34l-49.19 182.85c-51.24,190.63 -170.55,305.42 -357.89,344.36l163.57 224.67c15.17,20.91 22.55,41.81 22.55,62.71 0,7.8 -1.23,16 -3.29,23.78 -8.2,28.29 -29.51,56.17 -63.94,84.05 -35.26,28.28 -67.24,42.22 -95.93,42.22 -28.71,0 -54.12,-13.94 -75.85,-42.22l-275.91 -379.21zm1198.32 -901.1l959.71 0c125.87,0 188.59,49.6 188.59,149.22 0,26.25 -4.51,56.58 -13.12,91.02l-15.58 60.26c-21.73,79.95 -72.56,120.12 -152.5,120.12 -63.55,0 -95.11,-25.01 -95.11,-74.61 0,-13.54 2.45,-28.7 7.38,-45.51 2.45,-8.19 3.69,-15.58 3.69,-22.96 0,-24.59 -16.4,-37.3 -48.38,-37.3l-780.56 0 -80.36 300.5 720.72 0c62.31,0 93.47,24.18 93.47,72.97 0,13.94 -2.06,28.7 -6.16,44.69l-0.82 4.92c-20.91,78.3 -70.91,117.66 -150.45,117.66l-720.71 0 -79.12 300.08 779.33 0c40.18,0 65.6,-20.08 75.84,-59.85 21.73,-80.35 72.56,-120.11 152.51,-120.11 63.14,0 95.11,24.6 95.11,74.2 0,13.53 -2.46,29.11 -7.38,45.91l-15.57 59.85c-43.47,160.3 -145.13,240.24 -305.02,240.24l-959.71 0c-63.14,0 -94.71,-25 -94.71,-74.61 0,-13.52 2.05,-28.7 6.98,-45.5l289.42 -1083.53c21.74,-78.3 72.56,-117.66 152.51,-117.66zm1510.7 0l960.95 0c125.86,0 188.59,49.6 188.59,149.22 0,26.25 -4.51,56.58 -13.13,91.02l-15.58 60.26c-21.73,79.95 -72.97,120.12 -153.73,120.12 -63.54,0 -95.11,-25.01 -95.11,-74.61 0,-13.54 2.46,-28.7 7.37,-45.51l0 -2.46c2.47,-8.2 3.69,-15.17 3.69,-21.73 0,-23.77 -15.57,-36.07 -47.14,-36.07l-781.8 0 -79.12 300.5 720.72 0c62.31,0 93.47,24.6 93.47,74.2 0,13.94 -2.46,29.11 -6.97,45.91l0 2.47c-20.91,78.3 -70.92,117.66 -150.46,117.66l-720.71 0 -113.96 420.21 -1.24 2.45c-20.91,78.31 -70.51,117.66 -148.81,117.66 -63.13,0 -94.71,-25.42 -94.71,-75.84 0,-12.71 1.65,-27.47 5.74,-44.27l289.44 -1081.07c21.72,-79.94 72.56,-120.12 152.5,-120.12zm2626.61 540.74l48.38 -180.38c2.05,-9.43 3.28,-18.45 3.28,-26.24 0,-62.72 -70.1,-94.29 -209.9,-95.11l-962.18 1.23 -112.73 420.61 960.53 0c160.29,0 251.31,-40.17 272.62,-120.11zm-446.45 360.36l-850.66 0 -80.35 300.09c-21.73,79.94 -72.56,120.11 -152.51,120.11 -62.31,0 -93.47,-25.42 -93.47,-75.84 0,-12.71 1.64,-27.47 5.74,-44.27l290.66 -1081.07c21.73,-79.94 72.16,-120.12 151.27,-120.12l1140.93 -1.23c228.35,0.82 342.31,80.36 342.31,237.78 0,36.9 -5.73,77.48 -18.04,121.34l-49.19 182.85c-51.24,190.63 -170.55,305.42 -357.89,344.36l163.57 224.67c15.17,20.91 22.55,41.81 22.55,62.71 0,7.8 -1.23,16 -3.29,23.78 -8.2,28.29 -29.51,56.17 -63.94,84.05 -35.26,28.28 -67.24,42.22 -95.93,42.22 -28.71,0 -54.12,-13.94 -75.85,-42.22l-275.91 -379.21zm1198.32 -901.1c63.14,0 95.11,25 95.11,74.62 0,13.52 -2.46,28.69 -7.37,45.5l-289.44 1079.83c-21.72,80.77 -72.56,121.35 -152.5,121.35 -63.14,0 -94.71,-25 -94.71,-74.61 0,-13.52 2.05,-28.7 6.98,-45.5l289.42 -1083.53c21.74,-78.3 72.56,-117.66 152.51,-117.66zm606.34 0l1081.06 0c126.67,0 189.81,50.02 189.81,150.46 0,26.23 -4.51,56.16 -13.12,89.78l-16.8 60.26 -1.24 2.46c-20.9,77.49 -71.33,116.84 -151.68,117.66 -63.13,0 -94.7,-25.01 -94.7,-74.61 0,-13.54 2.46,-28.7 7.38,-45.51 2.46,-9.01 3.28,-16.39 3.28,-22.96 0,-25.41 -15.58,-38.53 -46.73,-38.53l-901.92 1.23c-79.94,0 -130.78,40.18 -152.51,120.12l-161.11 600.59c-3.69,16.81 -5.74,31.57 -5.74,44.28 0,50.83 31.57,75.83 94.71,75.83l900.68 0c40.17,0 70.51,-40.16 91.42,-120.11l32.38 -120.12c2.46,-8.6 3.69,-16.4 3.69,-22.96 0,-24.6 -15.58,-36.89 -46.73,-36.89l-120.12 0c-64.37,0 -96.34,-25.42 -96.34,-75.84 0,-13.53 2.46,-28.71 7.38,-45.51 21.72,-79.54 72.15,-118.89 151.27,-118.89l181.21 0c126.67,0 189.8,50.02 189.8,150.04 0,26.25 -4.09,56.58 -13.11,90.2l-80.36 298.86c-43.45,160.29 -143.89,240.24 -301.73,240.24l-2.05 0 -1082.29 1.22c-125.86,0 -188.59,-50.02 -188.59,-150.04 0,-26.65 4.51,-56.58 13.13,-90.2l224.65 -840.82c43.46,-159.89 145.13,-240.24 305.02,-240.24zm1640.66 0l959.71 0c125.86,0 188.59,49.6 188.59,149.22 0,26.25 -4.51,56.58 -13.12,91.02l-15.58 60.26c-21.73,79.95 -72.56,120.12 -152.5,120.12 -63.55,0 -95.11,-25.01 -95.11,-74.61 0,-13.54 2.45,-28.7 7.38,-45.51 2.45,-8.19 3.69,-15.58 3.69,-22.96 0,-24.59 -16.4,-37.3 -48.38,-37.3l-780.56 0 -80.36 300.5 720.72 0c62.31,0 93.47,24.18 93.47,72.97 0,13.94 -2.06,28.7 -6.16,44.69l-0.82 4.92c-20.91,78.3 -70.92,117.66 -150.45,117.66l-720.71 0 -79.12 300.08 779.33 0c40.17,0 65.59,-20.08 75.84,-59.85 21.73,-80.35 72.56,-120.11 152.51,-120.11 63.13,0 95.11,24.6 95.11,74.2 0,13.53 -2.46,29.11 -7.38,45.91l-15.58 59.85c-43.46,160.3 -145.13,240.24 -305.01,240.24l-959.71 0c-63.14,0 -94.71,-25 -94.71,-74.61 0,-13.52 2.05,-28.7 6.97,-45.5l289.43 -1083.53c21.73,-78.3 72.56,-117.66 152.51,-117.66zm2686.47 540.74l48.37 -180.38c2.05,-9.43 3.29,-18.45 3.29,-26.24 0,-62.72 -70.11,-94.29 -209.91,-95.11l-962.17 1.23 -112.74 420.61 960.53 0c160.29,0 251.31,-40.17 272.63,-120.11zm-446.45 360.36l-850.66 0 -80.36 300.09c-21.73,79.94 -72.56,120.11 -152.51,120.11 -62.31,0 -93.47,-25.42 -93.47,-75.84 0,-12.71 1.64,-27.47 5.74,-44.27l290.67 -1081.07c21.73,-79.94 72.15,-120.12 151.27,-120.12l1140.92 -1.23c228.35,0.82 342.32,80.36 342.32,237.78 0,36.9 -5.74,77.48 -18.05,121.34l-49.18 182.85c-51.25,190.63 -170.55,305.42 -357.9,344.36l163.57 224.67c15.17,20.91 22.55,41.81 22.55,62.71 0,7.8 -1.23,16 -3.28,23.78 -8.2,28.29 -29.52,56.17 -63.95,84.05 -35.26,28.28 -67.24,42.22 -95.93,42.22 -28.7,0 -54.11,-13.94 -75.84,-42.22l-275.91 -379.21zm946.2 179.96l-198.02 240.24c-102.08,0 -152.92,-28.28 -152.92,-85.27 0,-10.24 1.65,-21.73 4.92,-33.62l982.68 -1202.41 240.24 0 338.63 1201.19c-21.73,79.94 -92.65,120.11 -212.78,120.11l-68.46 -240.24 -934.29 0zm864.59 -240.23l-173 -600.59 -494.81 600.59 667.81 0zm1002.78 -840.83l1081.06 0c126.67,0 189.81,50.02 189.81,150.46 0,26.23 -4.51,56.16 -13.12,89.78l-16.8 60.26c-21.73,79.13 -72.57,119.3 -152.92,120.12 -63.13,0 -94.7,-25.01 -94.7,-74.61 0,-13.54 2.46,-28.7 7.38,-45.51 2.46,-9.01 3.28,-16.39 3.28,-22.96 0,-25.41 -15.58,-38.53 -46.73,-38.53l-901.92 1.23c-79.94,0 -130.78,40.18 -152.51,120.12l-161.11 600.59c-3.69,16.81 -5.74,31.57 -5.74,44.28 0,50.83 31.57,75.83 94.71,75.83l901.9 -1.22 2.47 0c37.71,0 62.31,-19.68 73.38,-58.63l1.22 -2.46c20.91,-79.53 70.93,-118.89 150.05,-118.89 63.13,0.82 94.71,25.84 94.71,75.44 0,13.53 -2.05,29.11 -6.98,45.91l-15.58 58.63c-43.45,160.29 -143.89,240.24 -301.73,240.24l-2.05 0 -1082.29 1.22c-125.86,0 -188.59,-50.02 -188.59,-150.04 0,-26.65 4.51,-56.58 13.13,-90.2l224.65 -840.82c43.46,-159.89 145.13,-240.24 305.02,-240.24zm1640.66 0c63.14,0 95.11,25 95.11,74.62 0,13.52 -2.46,28.69 -7.37,45.5l-289.44 1079.83c-21.72,80.77 -72.56,121.35 -152.5,121.35 -63.14,0 -94.71,-25 -94.71,-74.61 0,-13.52 2.05,-28.7 6.97,-45.5l289.43 -1083.53c21.73,-78.3 72.56,-117.66 152.51,-117.66zm301.32 240.24c43.46,-159.89 145.13,-240.24 305.02,-240.24l1201.18 0c126.26,0 189.81,49.6 189.81,149.22 0,26.25 -4.51,55.76 -13.12,88.56l-225.89 843.28c-43.45,160.3 -145.12,240.24 -305.01,240.24l-1199.95 0c-126.68,0 -189.82,-50.02 -189.82,-150.04 0,-26.65 4.51,-56.58 13.13,-90.2l224.65 -840.82zm1409.04 120.12l1.22 -2.47c3.69,-15.98 5.75,-30.33 5.75,-43.04 0,-49.6 -31.57,-74.61 -94.71,-74.61l-960.94 0c-79.12,0 -129.14,39.36 -150.05,117.65l-162.34 605.52c-4.1,15.98 -5.75,30.74 -5.75,44.27 0,48.79 31.16,73.38 93.48,73.38l960.95 0c79.94,0 130.78,-40.16 152.5,-120.11l159.89 -600.59zm-316.08 -840.83c56.98,0 85.27,30.75 85.27,91.42 0,25 -4.51,54.53 -13.11,88.96l-303.79 240.24c-57.81,0 -86.5,-30.75 -86.5,-92.66 0,-23.78 4.09,-53.29 13.11,-87.72l305.02 -240.24zm1019.57 480.47l118.89 0 927.33 1021.21 241.47 -901.09c21.73,-79.94 72.56,-120.12 152.5,-120.12 63.13,0 94.7,25 94.7,74.62 0,13.52 -2.46,28.69 -6.97,45.5l-289.43 1081.07c-21.73,79.94 -72.56,120.11 -152.51,120.11l-120.12 0 -927.32 -1020.8 -240.25 899.45c-21.72,80.77 -72.56,121.35 -152.49,121.35 -63.14,0 -94.71,-25 -94.71,-74.61 0,-13.52 2.05,-28.7 6.97,-45.5l289.43 -1083.53c21.73,-78.3 72.56,-117.66 152.51,-117.66z"/>
  <path class="fil0" d="M3194.54 10187.74l672.05 0c78.76,0 118,31.09 118,93.53 0,16.31 -2.8,34.91 -8.16,55.82l-10.44 37.46c-13.51,49.18 -45.12,74.15 -95.06,74.67 -39.25,0 -58.87,-15.54 -58.87,-46.38 0,-8.42 1.53,-17.84 4.59,-28.29 1.53,-5.61 2.03,-10.2 2.03,-14.27 0,-15.8 -9.68,-23.96 -29.05,-23.96l-560.68 0.77c-49.69,0 -81.3,24.97 -94.8,74.67l-100.16 373.35c-2.29,10.45 -3.57,19.63 -3.57,27.52 0,31.61 19.62,47.16 58.87,47.16l560.68 -0.76 1.53 0c23.45,0 38.73,-12.24 45.61,-36.45l0.77 -1.53c13,-49.45 44.09,-73.91 93.28,-73.91 39.24,0.51 58.87,16.06 58.87,46.89 0,8.41 -1.27,18.1 -4.33,28.55l-9.69 36.45c-27.01,99.65 -89.45,149.34 -187.57,149.34l-1.27 0 -672.82 0.76c-78.24,0 -117.23,-31.09 -117.23,-93.27 0,-16.57 2.8,-35.17 8.15,-56.07l139.67 -522.7c27.01,-99.4 90.21,-149.35 189.6,-149.35zm903.46 149.35c27.01,-99.4 90.21,-149.35 189.61,-149.35l746.72 0c78.5,0 118,30.84 118,92.76 0,16.31 -2.8,34.67 -8.16,55.06l-140.43 524.23c-27.01,99.64 -90.21,149.34 -189.6,149.34l-745.96 0c-78.75,0 -118,-31.09 -118,-93.27 0,-16.57 2.81,-35.17 8.15,-56.07l139.67 -522.7zm876.69 73.14c2.3,-9.95 3.57,-18.86 3.57,-26.76 0,-30.84 -19.62,-46.38 -58.87,-46.38l-597.37 0c-49.2,0 -80.28,24.46 -93.29,73.14l-100.91 376.41c-2.55,9.94 -3.57,19.12 -3.57,27.52 0,30.34 19.37,45.63 58.1,45.63l597.39 0c49.69,0 81.29,-24.98 94.8,-74.68l100.15 -374.88zm436.57 -222.49l73.91 0 290.53 448.03 530.86 -448.03 73.91 0.76c39.76,0 59.63,16.06 59.63,47.92 0,7.89 -1.27,16.82 -3.57,26.75l-179.92 671.29c-13.51,49.69 -45.11,74.67 -95.06,74.67 -39.76,0 -59.64,-15.54 -59.64,-46.38 0,-8.42 1.53,-17.84 4.59,-28.29l139.66 -522.7 -530.35 448.03 -291.04 -448.03 -138.89 521.94c-13.51,50.2 -45.12,75.43 -94.82,75.43 -39.24,0 -58.86,-15.54 -58.86,-46.38 0,-8.42 1.27,-17.84 4.33,-28.29l179.93 -673.58c13.5,-48.68 45.11,-73.14 94.8,-73.14zm1272.99 0l596.62 0c78.23,0 117.22,30.84 117.22,92.76 0,16.31 -2.8,35.17 -8.15,56.59l-9.68 37.46c-13.51,49.69 -45.11,74.67 -94.81,74.67 -39.5,0 -59.13,-15.54 -59.13,-46.38 0,-8.42 1.53,-17.84 4.59,-28.29 1.53,-5.1 2.29,-9.69 2.29,-14.27 0,-15.3 -10.19,-23.19 -30.07,-23.19l-485.24 0 -49.95 186.8 448.03 0c38.74,0 58.11,15.04 58.11,45.37 0,8.66 -1.27,17.84 -3.83,27.77l-0.5 3.06c-13,48.68 -44.09,73.15 -93.53,73.15l-448.04 0 -49.18 186.55 484.47 0c24.98,0 40.77,-12.49 47.15,-37.21 13.51,-49.95 45.11,-74.67 94.8,-74.67 39.25,0 59.13,15.29 59.13,46.12 0,8.41 -1.53,18.1 -4.59,28.55l-9.68 37.21c-27.02,99.64 -90.22,149.34 -189.61,149.34l-596.62 0c-39.24,0 -58.86,-15.54 -58.86,-46.38 0,-8.42 1.27,-17.84 4.33,-28.29l179.93 -673.58c13.5,-48.68 45.11,-73.14 94.8,-73.14zm1670.05 336.15l30.08 -112.13c1.27,-5.86 2.03,-11.48 2.03,-16.31 0,-39 -43.58,-58.62 -130.47,-59.13l-598.15 0.77 -70.08 261.47 597.11 0c99.65,0 156.23,-24.97 169.48,-74.67zm-277.53 224.02l-528.82 0 -49.95 186.55c-13.51,49.69 -45.11,74.67 -94.81,74.67 -38.74,0 -58.1,-15.8 -58.1,-47.15 0,-7.89 1.01,-17.07 3.56,-27.52l180.7 -672.05c13.5,-49.69 44.85,-74.67 94.03,-74.67l709.26 -0.77c141.95,0.51 212.81,49.95 212.81,147.82 0,22.94 -3.57,48.16 -11.22,75.44l-30.58 113.66c-31.86,118.51 -106.02,189.87 -222.49,214.07l101.69 139.67c9.42,12.99 14.01,25.99 14.01,38.99 0,4.84 -0.76,9.93 -2.03,14.78 -5.1,17.58 -18.35,34.91 -39.76,52.24 -21.92,17.59 -41.8,26.25 -59.63,26.25 -17.84,0 -33.64,-8.66 -47.15,-26.25l-171.52 -235.73zm819.6 -560.17l672.05 0c78.76,0 118,31.09 118,93.53 0,16.31 -2.8,34.91 -8.16,55.82l-10.44 37.46c-13.51,49.18 -45.12,74.15 -95.06,74.67 -39.26,0 -58.87,-15.54 -58.87,-46.38 0,-8.42 1.53,-17.84 4.59,-28.29 1.52,-5.61 2.03,-10.2 2.03,-14.27 0,-15.8 -9.68,-23.96 -29.05,-23.96l-560.68 0.77c-49.69,0 -81.3,24.97 -94.8,74.67l-100.16 373.35c-2.29,10.45 -3.58,19.63 -3.58,27.52 0,31.61 19.63,47.16 58.88,47.16l560.68 -0.76 1.53 0c23.45,0 38.73,-12.24 45.61,-36.45l0.77 -1.53c13,-49.45 44.09,-73.91 93.28,-73.91 39.24,0.51 58.87,16.06 58.87,46.89 0,8.41 -1.27,18.1 -4.33,28.55l-9.69 36.45c-27.01,99.65 -89.45,149.34 -187.57,149.34l-1.27 0 -672.82 0.76c-78.24,0 -117.23,-31.09 -117.23,-93.27 0,-16.57 2.8,-35.17 8.15,-56.07l139.66 -522.7c27.01,-99.4 90.22,-149.35 189.61,-149.35zm1019.93 0c39.25,0 59.12,15.54 59.12,46.38 0,8.41 -1.53,17.84 -4.59,28.29l-179.91 671.29c-13.51,50.2 -45.12,75.43 -94.82,75.43 -39.24,0 -58.86,-15.54 -58.86,-46.38 0,-8.42 1.27,-17.84 4.33,-28.29l179.93 -673.58c13.5,-48.68 45.11,-73.14 94.8,-73.14zm145.78 672.05l-123.1 149.34c-63.45,0 -95.06,-17.58 -95.06,-53.01 0,-6.37 1.03,-13.5 3.06,-20.89l610.88 -747.49 149.35 0 210.51 746.72c-13.51,49.69 -57.6,74.67 -132.27,74.67l-42.56 -149.34 -580.81 0zm537.48 -149.35l-107.55 -373.35 -307.61 373.35 415.16 0zm548.7 -522.7c39.25,0 59.12,15.54 59.12,46.38 0,8.41 -1.53,17.84 -4.59,28.29l-159.78 597.38 597.37 0c39.25,0 58.87,15.55 58.87,46.38 0,8.41 -1.53,17.84 -4.33,28.29 -13.51,49.69 -45.11,74.67 -94.8,74.67l-672.06 0c-39.24,0 -58.86,-15.54 -58.86,-46.38 0,-8.42 1.27,-17.84 4.33,-28.29l179.93 -673.58c13.5,-48.68 45.1,-73.14 94.8,-73.14zm1568.11 0l596.61 0c78.24,0 117.23,30.84 117.23,92.76 0,16.31 -2.8,35.17 -8.15,56.59l-9.68 37.46c-13.51,49.69 -45.11,74.67 -94.81,74.67 -39.5,0 -59.13,-15.54 -59.13,-46.38 0,-8.42 1.53,-17.84 4.59,-28.29 1.53,-5.1 2.29,-9.69 2.29,-14.27 0,-15.3 -10.19,-23.19 -30.07,-23.19l-485.24 0 -49.95 186.8 448.03 0c38.74,0 58.11,15.04 58.11,45.37 0,8.66 -1.27,17.84 -3.83,27.77l-0.5 3.06c-13,48.68 -44.09,73.15 -93.53,73.15l-448.04 0 -49.18 186.55 484.47 0c24.97,0 40.77,-12.49 47.15,-37.21 13.51,-49.95 45.1,-74.67 94.8,-74.67 39.25,0 59.13,15.29 59.13,46.12 0,8.41 -1.53,18.1 -4.59,28.55l-9.68 37.21c-27.02,99.64 -90.22,149.34 -189.62,149.34l-596.61 0c-39.24,0 -58.86,-15.54 -58.86,-46.38 0,-8.42 1.27,-17.84 4.33,-28.29l179.93 -673.58c13.5,-48.68 45.1,-73.14 94.8,-73.14zm1568.11 0c39.25,0 59.12,15.54 59.12,46.38 0,8.41 -1.53,17.84 -4.59,28.29l-179.92 671.29c-13.51,50.2 -45.11,75.43 -94.81,75.43 -39.25,0 -58.86,-15.54 -58.86,-46.38 0,-8.42 1.27,-17.84 4.33,-28.29l179.93 -673.58c13.5,-48.68 45.1,-73.14 94.8,-73.14zm302.51 0l73.9 0 576.49 634.84 150.1 -560.17c13.51,-49.69 45.11,-74.67 94.8,-74.67 39.25,0 58.88,15.54 58.88,46.38 0,8.41 -1.53,17.84 -4.33,28.29l-179.93 672.05c-13.51,49.69 -45.11,74.67 -94.8,74.67l-74.68 0 -576.48 -634.58 -149.34 559.15c-13.5,50.2 -45.11,75.43 -94.81,75.43 -39.25,0 -58.86,-15.54 -58.86,-46.38 0,-8.42 1.27,-17.84 4.33,-28.29l179.93 -673.58c13.5,-48.68 45.1,-73.14 94.8,-73.14zm1103.51 74.67c13.5,-49.69 44.86,-74.67 94.04,-74.67l559.91 0c216.12,0 324.18,84.87 324.18,254.6 0,45.36 -7.65,96.84 -23.2,154.69l-0.76 3.06c-73.14,272.69 -246.69,409.04 -520.41,409.04l-559.91 0c-38.74,0 -58.11,-15.8 -58.11,-47.15 0,-7.89 1.02,-17.07 3.57,-27.52l180.69 -672.05zm804.83 336.15c8.92,-33.38 13.51,-63.46 13.51,-90.47 0,-113.92 -80.28,-171 -241.09,-171l-448.8 0 -139.67 522.7 448.8 0c198.53,0 321.12,-87.16 367.25,-261.23zm462.3 -410.82c39.51,0 59.13,15.54 59.13,46.38 0,8.41 -1.53,17.84 -4.59,28.29l-140.42 522.7c-2.29,10.45 -3.57,19.63 -3.57,27.52 0,31.61 19.63,47.16 58.87,47.16l522.71 0c49.7,0 81.04,-24.98 94.04,-74.68l140.42 -522.7c13.51,-49.69 44.86,-74.67 94.04,-74.67 39.76,0 59.64,15.54 59.64,46.38 0,8.41 -1.27,17.84 -4.33,28.29l-159.8 596.62c-27.01,99.65 -89.45,149.34 -187.57,149.34l-1.27 0 -672.81 0.76c-78.25,0 -117.24,-31.09 -117.24,-93.27 0,-16.57 2.8,-35.17 8.15,-56.07l159.8 -597.38c13.51,-49.69 45.11,-74.67 94.8,-74.67zm1235.79 0l633.82 0.76c78.74,0 117.99,31.09 117.99,93.28 0,16.56 -2.8,35.16 -8.15,56.07l-10.45 37.47c-13,49.69 -44.35,74.66 -94.29,74.66 -39.26,0 -58.88,-15.54 -58.88,-46.38 0,-7.9 1.28,-16.82 3.82,-26.76l0 -1.52c1.53,-5.62 2.3,-10.2 2.3,-14.28 0,-15.55 -9.94,-23.19 -29.31,-23.19l-559.15 -0.76c-50.2,0 -82.06,24.97 -95.56,74.67l-9.69 37.46c-3.06,10.45 -4.59,19.87 -4.59,28.29 0,30.84 19.63,46.38 59.13,46.38l559.91 0c98.12,0.51 147.05,39.25 147.05,116.47 0,20.38 -3.56,43.83 -10.45,70.08l-29.05 112.14c-33.9,124.37 -113.15,186.55 -237.52,186.55l-634.59 0c-78.24,0 -117.23,-30.84 -117.23,-92.51 0,-16.56 2.8,-35.42 8.15,-56.83l9.69 -37.21c13.51,-49.95 45.36,-74.67 95.56,-74.67 39,0 58.37,15.29 58.37,46.12 0,8.41 -1.53,18.1 -4.59,28.55 -1.53,4.84 -2.3,9.68 -2.3,14.02 0,15.54 10.2,23.19 30.08,23.19l559.92 0c49.69,0 81.03,-24.47 94.03,-73.15l10.45 -38.73c3.06,-10.45 4.59,-20.14 4.59,-28.55 0,-30.84 -19.87,-46.12 -59.13,-46.12l-559.91 0c-98.11,0 -147.05,-38.75 -147.05,-115.71 0,-21.16 3.32,-44.6 10.45,-71.1l30.58 -111.88 0 -1.53c33.39,-123.35 111.88,-185.28 236,-185.28zm825.72 74.67c14.03,-49.69 45.62,-74.67 94.81,-74.67l896.83 0c38.73,0 58.11,15.8 58.11,47.15 0,7.89 -1.28,17.07 -3.57,27.52 -14.02,49.96 -45.11,74.68 -93.54,74.68l-375.39 0 -160.56 598.9c-13,48.68 -44.09,73.14 -93.27,73.14 -39.51,0 -59.14,-15.54 -59.14,-46.38 0,-8.42 1.53,-17.84 4.59,-28.29l159.8 -597.37 -374.12 0c-39.25,0 -58.88,-15.3 -58.88,-46.14 0,-8.66 1.27,-18.09 4.33,-28.54zm1942.75 261.48l30.08 -112.13c1.27,-5.86 2.03,-11.48 2.03,-16.31 0,-39 -43.58,-58.62 -130.48,-59.13l-598.14 0.77 -70.08 261.47 597.11 0c99.65,0 156.23,-24.97 169.48,-74.67zm-277.53 224.02l-528.82 0 -49.95 186.55c-13.51,49.69 -45.11,74.67 -94.81,74.67 -38.74,0 -58.1,-15.8 -58.1,-47.15 0,-7.89 1.01,-17.07 3.56,-27.52l180.7 -672.05c13.5,-49.69 44.85,-74.67 94.03,-74.67l709.26 -0.77c141.95,0.51 212.81,49.95 212.81,147.82 0,22.94 -3.57,48.16 -11.22,75.44l-30.58 113.66c-31.86,118.51 -106.02,189.87 -222.49,214.07l101.69 139.67c9.42,12.99 14.01,25.99 14.01,38.99 0,4.84 -0.76,9.93 -2.03,14.78 -5.1,17.58 -18.36,34.91 -39.76,52.24 -21.92,17.59 -41.8,26.25 -59.63,26.25 -17.84,0 -33.64,-8.66 -47.15,-26.25l-171.52 -235.73zm744.94 -560.17c39.25,0 59.12,15.54 59.12,46.38 0,8.41 -1.53,17.84 -4.59,28.29l-179.92 671.29c-13.51,50.2 -45.11,75.43 -94.81,75.43 -39.25,0 -58.86,-15.54 -58.86,-46.38 0,-8.42 1.27,-17.84 4.33,-28.29l179.93 -673.58c13.49,-48.68 45.1,-73.14 94.8,-73.14zm145.77 672.05l-123.09 149.34c-63.46,0 -95.06,-17.58 -95.06,-53.01 0,-6.37 1.02,-13.5 3.06,-20.89l610.88 -747.49 149.34 0 210.51 746.72c-13.51,49.69 -57.59,74.67 -132.26,74.67l-42.56 -149.34 -580.82 0zm537.49 -149.35l-107.55 -373.35 -307.61 373.35 415.16 0zm548.7 -522.7c39.24,0 59.12,15.54 59.12,46.38 0,8.41 -1.53,17.84 -4.59,28.29l-159.79 597.38 597.38 0c39.24,0 58.87,15.55 58.87,46.38 0,8.41 -1.53,17.84 -4.33,28.29 -13.51,49.69 -45.11,74.67 -94.81,74.67l-672.05 0c-39.25,0 -58.87,-15.54 -58.87,-46.38 0,-8.42 1.28,-17.84 4.34,-28.29l179.92 -673.58c13.5,-48.68 45.11,-73.14 94.81,-73.14z"/>
  <path class="fil1 str1" d="M5258.38 3113.09l-1334.58 3993.86 5421.39 1.88c-74.62,434.51 -280.35,725.6 -646.25,841.51l-5570.39 0.35c-151.93,-87.41 -223.58,-220.69 -228.99,-391.83l1360.17 -4063.83c235.62,-338.45 577.52,-446.21 998.65,-381.94z"/>
  <path class="fil1 str1" d="M11221.97 3154.63l5552.73 -0.9c164.97,64.88 243.02,191.85 240.31,376.51l-690.05 2065.86c-101.77,220.07 -269.37,349.23 -496.89,395.61l-5050.16 -0.01 -664.78 1994.01c-358.17,73.64 -617.22,-32.38 -755.08,-358.05l1366.94 -4096.3c122.47,-202.57 283.99,-335.52 496.98,-376.73z"/>
  <polygon class="fil2 str1" points="11438.53,4002.05 11064.92,5131.83 15615.35,5118.39 15990.18,3998.79 "/>
  <path class="fil1 str1" d="M23241.04 3157.12l-332.94 1002.86 -5550.39 1504.1 -485.62 1473.7 5416.71 -3.8c-74.02,458.57 -292.83,745.23 -654.67,862.04l-5560.11 -6.82c-144.6,-83.73 -219.04,-197.79 -231.66,-377.44l793.33 -2378.1c146.55,-226.15 344.8,-366.8 609.23,-398.06l3190.25 -832.47 -3387.35 -4.5c105.46,-475.91 314.71,-761.54 637.14,-839.7l5556.08 -1.81z"/>
 </g>
</svg>
